<svg xmlns="http://www.w3.org/2000/svg" version="1.1" xmlns:xlink="http://www.w3.org/1999/xlink" xmlns:svgjs="http://svgjs.dev/svgjs" width="2000" height="1752" viewBox="0 0 2000 1752"><g transform="matrix(1,0,0,1,-3.143611424751043,-2.825806451612948)"><svg viewBox="0 0 283 248" data-background-color="#ffffff" preserveAspectRatio="xMidYMid meet" height="1752" width="2000" xmlns="http://www.w3.org/2000/svg" xmlns:xlink="http://www.w3.org/1999/xlink"><g id="tight-bounds" transform="matrix(1,0,0,1,0.44482101660227613,0.4000000000000057)"><svg viewBox="0 0 282.11035796679545 247.2" height="247.2" width="282.11035796679545"><g><svg viewBox="0 0 395.52 346.57551996551604" height="247.2" width="282.11035796679545"><g transform="matrix(1,0,0,1,0,257.7434418452841)"><svg viewBox="0 0 395.52 88.83207812023191" height="88.83207812023191" width="395.52"><g id="textblocktransform"><svg viewBox="0 0 395.52 88.83207812023191" height="88.83207812023191" width="395.52" id="textblock"><g><svg viewBox="0 0 395.52 88.83207812023191" height="88.83207812023191" width="395.52"><g transform="matrix(1,0,0,1,0,0)"><svg width="395.52" viewBox="1 -36 169.08 36.8" height="88.83207812023191" data-palette-color="#187614"><g class="wordmark-text-0" data-fill-palette-color="primary" id="text-0"><path d="M21.75-31.3L1-31.3 1-35.25 21.75-35.25 21.75-31.3ZM13.65 0L9.1 0 9.1-35.25 13.65-35.25 13.65 0ZM30.3 0L25.75 0 25.75-25.25 30.3-25.25 30.3 0ZM30.3-16.9L28.25-16.9Q28.25-19.45 29.1-21.48 29.95-23.5 31.42-24.65 32.9-25.8 34.7-25.8L34.7-25.8 34.3-21.55Q32.55-21.55 31.42-20.23 30.3-18.9 30.3-16.9L30.3-16.9ZM38.85-24.2L37.3-20.4Q36.7-20.9 35.87-21.23 35.05-21.55 34.3-21.55L34.3-21.55 34.7-25.8Q35.85-25.8 36.95-25.38 38.05-24.95 38.85-24.2L38.85-24.2ZM60.64 0L56.09 0 56.09-17.2 60.64-17.2 60.64 0ZM49.99 0.75L49.99 0.75 50.34-3Q52.14-3 53.42-3.9 54.7-4.8 55.39-6.55 56.09-8.3 56.09-10.7L56.09-10.7 58.34-10.8Q58.34-7.4 57.25-4.8 56.14-2.2 54.27-0.73 52.39 0.75 49.99 0.75ZM50.34-3L49.99 0.75Q47.74 0.75 45.89-0.3 44.05-1.35 42.95-3.18 41.84-5 41.84-7.25L41.84-7.25 46.14-7.4Q46.14-5.5 47.42-4.25 48.7-3 50.34-3L50.34-3ZM46.14-7.4L41.84-7.25Q41.84-9.6 43.02-11.38 44.2-13.15 46.2-14.2 48.2-15.25 50.74-15.25L50.74-15.25 50.99-11.75Q48.89-11.75 47.52-10.53 46.14-9.3 46.14-7.4L46.14-7.4ZM58.45-11.75L50.99-11.75 50.74-15.25 58.45-15.25 58.45-11.75ZM58.34-10.8L56.09-10.7 56.09-17.15 58.34-17.15 58.34-10.8ZM60.64-17.1L60.64-17.1 56.09-17.1Q56.09-19.3 54.77-20.7 53.45-22.1 51.34-22.1L51.34-22.1 51.34-26Q54.05-26 56.12-24.85 58.2-23.7 59.42-21.68 60.64-19.65 60.64-17.1ZM46.64-17.7L46.64-17.7 42.45-18.55Q42.74-20.8 43.97-22.45 45.2-24.1 47.12-25.05 49.05-26 51.39-26L51.39-26 51.39-22.1Q49.55-22.1 48.22-21.03 46.89-19.95 46.64-17.7ZM77.24 0L73.04 0 80.84-25.25 85.39-25.25 77.24 0ZM76.74 0L72.59 0 64.39-25.25 68.94-25.25 76.74 0ZM107.14-11.25L90.09-11.25 90.09-14.5 107.14-14.5 107.14-11.25ZM98.09 0.8L97.84 0.8 97.84-3.15 98.09-3.15 98.09 0.8ZM93.19-8.95L88.64-8.95 88.64-16.3 93.19-16.3 93.19-8.95ZM107.14-14.5L102.59-14.5 102.59-17.1 107.14-17.1 107.14-14.5ZM107.14-17.1L107.14-17.1 102.59-17.1Q102.59-19.3 101.27-20.7 99.94-22.1 97.84-22.1L97.84-22.1 97.84-26Q100.54-26 102.62-24.85 104.69-23.7 105.92-21.68 107.14-19.65 107.14-17.1ZM102.79-7.5L102.79-7.5 107.04-6.65Q106.74-4.5 105.49-2.8 104.24-1.1 102.34-0.15 100.44 0.8 98.09 0.8L98.09 0.8 98.09-3.15Q99.89-3.15 101.22-4.23 102.54-5.3 102.79-7.5ZM93.19-16.25L88.64-16.25Q88.64-19.1 89.86-21.28 91.09-23.45 93.17-24.73 95.24-26 97.89-26L97.89-26 97.89-22.1Q95.69-22.1 94.44-20.58 93.19-19.05 93.19-16.25L93.19-16.25ZM88.64-8.95L88.64-8.95 93.19-8.95Q93.19-6.2 94.44-4.67 95.69-3.15 97.89-3.15L97.89-3.15 97.89 0.8Q95.24 0.8 93.17-0.48 91.09-1.75 89.86-3.95 88.64-6.15 88.64-8.95ZM116.94 0L112.39 0 112.39-36 116.94-36 116.94 0ZM128.49 0L123.94 0 123.94-36 128.49-36 128.49 0ZM152.23-11.25L135.18-11.25 135.18-14.5 152.23-14.5 152.23-11.25ZM143.18 0.8L142.93 0.8 142.93-3.15 143.18-3.15 143.18 0.8ZM138.28-8.95L133.73-8.95 133.73-16.3 138.28-16.3 138.28-8.95ZM152.23-14.5L147.68-14.5 147.68-17.1 152.23-17.1 152.23-14.5ZM152.23-17.1L152.23-17.1 147.68-17.1Q147.68-19.3 146.36-20.7 145.03-22.1 142.93-22.1L142.93-22.1 142.93-26Q145.63-26 147.71-24.85 149.78-23.7 151.01-21.68 152.23-19.65 152.23-17.1ZM147.88-7.5L147.88-7.5 152.13-6.65Q151.83-4.5 150.58-2.8 149.33-1.1 147.43-0.15 145.53 0.8 143.18 0.8L143.18 0.8 143.18-3.15Q144.98-3.15 146.31-4.23 147.63-5.3 147.88-7.5ZM138.28-16.25L133.73-16.25Q133.73-19.1 134.96-21.28 136.18-23.45 138.26-24.73 140.33-26 142.98-26L142.98-26 142.98-22.1Q140.78-22.1 139.53-20.58 138.28-19.05 138.28-16.25L138.28-16.25ZM133.73-8.95L133.73-8.95 138.28-8.95Q138.28-6.2 139.53-4.67 140.78-3.15 142.98-3.15L142.98-3.15 142.98 0.8Q140.33 0.8 138.26-0.48 136.18-1.75 134.96-3.95 133.73-6.15 133.73-8.95ZM161.53 0L156.98 0 156.98-25.25 161.53-25.25 161.53 0ZM161.53-16.9L159.48-16.9Q159.48-19.45 160.33-21.48 161.18-23.5 162.66-24.65 164.13-25.8 165.93-25.8L165.93-25.8 165.53-21.55Q163.78-21.55 162.66-20.23 161.53-18.9 161.53-16.9L161.53-16.9ZM170.08-24.2L168.53-20.4Q167.93-20.9 167.11-21.23 166.28-21.55 165.53-21.55L165.53-21.55 165.93-25.8Q167.08-25.8 168.18-25.38 169.28-24.95 170.08-24.2L170.08-24.2Z" fill="#187614" data-fill-palette-color="primary"></path></g></svg></g></svg></g></svg></g></svg></g><g transform="matrix(1,0,0,1,89.8594007516698,0)"><svg viewBox="0 0 215.8011984966604 215.8011984966604" height="215.8011984966604" width="215.8011984966604"><g><svg></svg></g><g id="icon-0"><svg viewBox="0 0 215.8011984966604 215.8011984966604" height="215.8011984966604" width="215.8011984966604"><g><path d="M0 107.901c0-59.592 48.309-107.901 107.901-107.901 59.592 0 107.901 48.309 107.9 107.901 0 59.592-48.309 107.901-107.9 107.9-59.592 0-107.901-48.309-107.901-107.9zM107.901 207.79c55.168 0 99.89-44.722 99.889-99.889 0-55.168-44.722-99.89-99.889-99.89-55.168 0-99.89 44.722-99.89 99.89 0 55.168 44.722 99.89 99.89 99.889z" data-fill-palette-color="accent" fill="#187614" stroke="transparent"></path></g><g transform="matrix(1,0,0,1,71.76592501534776,45.90991757106409)"><svg viewBox="0 0 72.26934846596485 123.9813633545322" height="123.9813633545322" width="72.26934846596485"><g><svg xmlns="http://www.w3.org/2000/svg" data-name="Layer 1" viewBox="178.00499475459858 102.55 210.8950052454014 361.8" x="0" y="0" height="123.9813633545322" width="72.26934846596485" class="icon-dxe-0" data-fill-palette-color="accent" id="dxe-0"><path d="M374 350.2H326A14.94 14.94 0 0 0 311.1 365.1V446A14.94 14.94 0 0 0 326 460.9H374A14.94 14.94 0 0 0 388.9 446V365.1A14.94 14.94 0 0 0 374 350.2M329 447.88A2.26 2.26 0 0 1 326.6 449.93H326.33A2.26 2.26 0 0 1 323.93 447.88V447.45A2.09 2.09 0 0 0 325.42 445.55V367.63A2.09 2.09 0 0 0 323.93 365.73V365.3A2.26 2.26 0 0 1 326.33 363.25H326.6A2.26 2.26 0 0 1 329 365.3ZM352.56 447.88A2.26 2.26 0 0 1 350.16 449.93H349.89A2.26 2.26 0 0 1 347.49 447.88V447.45A2.09 2.09 0 0 0 348.98 445.55V367.63A2.09 2.09 0 0 0 347.49 365.73V365.3A2.26 2.26 0 0 1 349.89 363.25H350.16A2.26 2.26 0 0 1 352.56 365.3ZM376.56 447.88A2.26 2.26 0 0 1 374.16 449.93H373.89A2.26 2.26 0 0 1 371.49 447.88V447.45A2.09 2.09 0 0 0 372.98 445.55V367.63A2.09 2.09 0 0 0 371.49 365.73V365.3A2.26 2.26 0 0 1 373.89 363.25H374.16A2.26 2.26 0 0 1 376.56 365.3Z" fill="#187614" data-fill-palette-color="accent"></path><rect x="369.23" y="304.41" width="4.56" height="48.15" rx="2.28" ry="2.28" fill="#187614" data-fill-palette-color="accent"></rect><path d="M326.48 310.83V354.25A2.28 2.28 0 1 0 331.04 354.25V310.83Z" fill="#187614" data-fill-palette-color="accent"></path><circle cx="238.84" cy="150.62" r="48" fill="#187614" data-fill-palette-color="accent"></circle><path d="M190.89 351.91C190.82 352.28 178.21 438.17 178.21 438.17A22.86 22.86 0 0 0 223.53 444.24L232.12 385.41C212 382.25 196.38 370.36 190.89 351.91" fill="#187614" data-fill-palette-color="accent"></path><path d="M342.81 295.92C340.18 301.92 336.48 303.76 329.43 303.02L290.99 303.75A36.94 36.94 0 0 1 262.59 291.26L237.15 262.43C232.8 257.51 230.71 253.76 233.34 247.77L233.42 247.59C236.53 240.75 245.98 239.83 250.93 245.48L270.35 267.64A42.33 42.33 0 0 0 303.15 282.07L332.61 281.4C340.12 281.23 345.82 288.81 342.89 295.73Z" fill="#187614" data-fill-palette-color="accent"></path><path d="M259.61 293.88L234.69 265.64C229.42 259.74 226.34 253.81 229.69 246.16A14 14 0 0 1 240.53 237.96 14.86 14.86 0 0 1 253.91 242.86L273.34 265A38.4 38.4 0 0 0 284.56 273.76V251.76A46.9 46.9 0 0 0 190.76 251.76V326.31A47 47 0 0 0 237.66 373.21C238.06 373.21 238.44 373.21 238.84 373.15V441.49A22.86 22.86 0 1 0 284.56 441.49V307.28A40.78 40.78 0 0 1 259.61 293.88" fill="#187614" data-fill-palette-color="accent"></path><path d="M375.92 300.09H345.17A18.35 18.35 0 0 1 333.56 308.72H375.91A4.32 4.32 0 0 0 375.91 300.09Z" fill="#187614" data-fill-palette-color="accent"></path></svg></g></svg></g></svg></g></svg></g><g></g></svg></g><defs></defs></svg><rect width="282.11035796679545" height="247.2" fill="none" stroke="none" visibility="hidden"></rect></g></svg></g></svg>